<?xml version="1.0" encoding="utf-8"?>
<!-- Generator: Adobe Illustrator 16.0.5, SVG Export Plug-In . SVG Version: 6.00 Build 0)  -->
<!DOCTYPE svg PUBLIC "-//W3C//DTD SVG 1.1//EN" "http://www.w3.org/Graphics/SVG/1.1/DTD/svg11.dtd">
<svg version="1.1" id="Layer_1" xmlns="http://www.w3.org/2000/svg" xmlns:xlink="http://www.w3.org/1999/xlink" x="0px" y="0px"
	 width="198.422px" height="198.422px" viewBox="0 0 198.422 198.422" enable-background="new 0 0 198.422 198.422"
	 xml:space="preserve">
<g>
	<path fill="#30A7DF" d="M98.94,195.324c-52.989,0-96.099-43.11-96.099-96.099c0-52.989,43.11-96.099,96.099-96.099
		c52.989,0,96.099,43.11,96.099,96.099C195.039,152.214,151.929,195.324,98.94,195.324z M98.94,7.126
		c-50.784,0-92.099,41.315-92.099,92.099s41.315,92.099,92.099,92.099s92.099-41.315,92.099-92.099S149.724,7.126,98.94,7.126z"/>
</g>
<g>
	<path fill="#30A7DF" d="M95.653,157.252h-2c-32.814,0-59.511-26.755-59.511-59.642c0-32.884,26.696-59.638,59.511-59.638h2V157.252
		z M66.835,125.333c5.036,15.694,14.208,26.581,24.817,27.804v-27.804H66.835z M45.535,125.333
		c7.083,12.303,18.728,21.652,32.599,25.707c-6.58-5.592-11.987-14.624-15.411-25.707H45.535z M65.67,121.333h25.983V99.61H62.734
		C62.887,107.354,63.925,114.701,65.67,121.333z M43.444,121.333h18.154c-1.708-6.697-2.715-14.026-2.864-21.723H38.177
		C38.451,107.354,40.313,114.701,43.444,121.333z M62.734,95.61h28.918V72.083H66.167C64.123,79.175,62.902,87.156,62.734,95.61z
		 M38.177,95.61h20.557c0.163-8.394,1.346-16.352,3.345-23.527H44.337C40.667,79.175,38.478,87.156,38.177,95.61z M67.44,68.083
		h24.212V42.087C81.455,43.262,72.585,53.365,67.44,68.083z M46.621,68.083h16.684c3.438-10.257,8.61-18.614,14.829-23.898
		C64.949,48.038,53.777,56.674,46.621,68.083z M129.865,157.225c-2.622,0-5.028-1.092-6.731-2.937
		c-1.712,1.829-4.134,2.937-6.707,2.937c-5.089,0-9.229-4.146-9.229-9.244V115.26c-4.127-0.917-7.222-4.61-7.222-9.014V79.518
		c0-5.096,4.137-9.241,9.222-9.241h7.709l6.236,7.934l6.229-7.934h7.717c5.087,0,9.225,4.146,9.225,9.242v26.728
		c0,4.404-3.096,8.098-7.224,9.015v32.719C139.091,153.078,134.952,157.225,129.865,157.225z M123.14,145.001l1.871,4.856
		c0.788,2.045,2.693,3.367,4.854,3.367c2.882,0,5.226-2.353,5.226-5.244v-36.5h2c2.88,0,5.224-2.348,5.224-5.233V79.519
		c0-2.891-2.344-5.242-5.225-5.242h-5.771l-8.173,10.409l-8.182-10.409h-5.766c-2.879,0-5.222,2.351-5.222,5.241v26.728
		c0,2.885,2.343,5.232,5.222,5.232h2v36.502c0,2.892,2.346,5.244,5.229,5.244c2.13,0,4.079-1.352,4.851-3.364L123.14,145.001z
		 M123.145,69.363c-3.484,0-6.967-1.426-9.557-3.911c-2.734-2.625-4.239-6.147-4.238-9.918c0-7.634,6.188-13.845,13.795-13.845
		c7.615,0,13.812,6.211,13.812,13.845C136.956,63.159,130.76,69.363,123.145,69.363z M123.145,45.689
		c-5.401,0-9.795,4.417-9.795,9.845c-0.001,2.671,1.067,5.168,3.009,7.032c1.852,1.777,4.325,2.797,6.786,2.797
		c4.738,0,9.812-3.949,9.812-9.829C132.956,50.105,128.555,45.689,123.145,45.689z"/>
</g>
</svg>
