<?xml version="1.0" encoding="utf-8"?>
<!-- Generator: Adobe Illustrator 16.0.5, SVG Export Plug-In . SVG Version: 6.00 Build 0)  -->
<!DOCTYPE svg PUBLIC "-//W3C//DTD SVG 1.1//EN" "http://www.w3.org/Graphics/SVG/1.1/DTD/svg11.dtd">
<svg version="1.1" id="Layer_1" xmlns="http://www.w3.org/2000/svg" xmlns:xlink="http://www.w3.org/1999/xlink" x="0px" y="0px"
	 width="198.422px" height="198.422px" viewBox="0 0 198.422 198.422" enable-background="new 0 0 198.422 198.422"
	 xml:space="preserve">
<g>
	<path fill="#30A7DF" d="M99.829,170.395c-0.343,0-0.685-0.088-0.992-0.264l-1.839-1.051
		c-24.954-14.248-42.841-30.208-53.163-47.437c-11.323-18.886-10.771-34.531-8.314-44.33c4.619-18.429,19.787-31.3,36.886-31.3
		l0.15,0c10.646,0.045,20.192,4.924,27.746,14.143c7.595-9.105,17.131-13.899,27.719-13.899l0.152,0
		c17.166,0.073,32.285,13.077,36.769,31.622c2.368,9.821,2.78,25.47-8.707,44.255c-10.477,17.14-28.505,32.944-53.584,46.974
		l-1.847,1.032C100.501,170.31,100.165,170.395,99.829,170.395z M72.407,50.014c-15.261,0-28.833,11.626-33.006,28.272
		c-2.273,9.065-2.753,23.59,7.865,41.301c9.965,16.633,27.365,32.116,51.716,46.02l0.858,0.491l0.859-0.48
		c24.472-13.689,42.009-29.021,52.124-45.568c10.772-17.617,10.422-32.146,8.23-41.231c-4.049-16.75-17.577-28.495-32.897-28.56
		l-0.135,0c-10.045,0-19.082,4.959-26.134,14.34c-0.378,0.503-0.97,0.798-1.599,0.798c-0.003,0-0.006,0-0.009,0
		c-0.632-0.003-1.225-0.304-1.6-0.812c-7.005-9.489-16.044-14.527-26.141-14.57L72.407,50.014z"/>
</g>
<g>
	<path fill="#30A7DF" d="M87.033,141.502c-1.584,0-3.057-0.563-4.201-1.542c-1.15,0.972-2.625,1.542-4.177,1.542
		c-3.587,0-6.506-2.92-6.506-6.509V115.22c-2.61-0.845-4.502-3.298-4.502-6.184V92.41c0-3.586,2.917-6.504,6.502-6.504h4.659
		c-0.89-0.432-1.718-1.003-2.442-1.698c-1.855-1.777-2.876-4.164-2.875-6.719c0-5.165,4.196-9.367,9.354-9.367
		c5.162,0,9.362,4.202,9.362,9.367c0,3.693-2.15,6.894-5.265,8.416h4.599c3.584,0,6.5,2.917,6.5,6.504v16.626
		c0,2.886-1.891,5.338-4.5,6.184v19.773C93.54,138.582,90.621,141.502,87.033,141.502z M82.842,131.049l1.868,4.841
		c0.378,0.979,1.29,1.612,2.323,1.612c1.382,0,2.507-1.125,2.507-2.509v-23.459h2c1.378,0,2.5-1.121,2.5-2.498V92.41
		c0-1.381-1.122-2.504-2.5-2.504h-3.238l-5.457,6.935l-5.468-6.935h-3.229c-1.379,0-2.502,1.123-2.502,2.504v16.626
		c0,1.377,1.123,2.498,2.502,2.498h2v23.459c0,1.384,1.124,2.509,2.506,2.509c1.019,0,1.952-0.647,2.323-1.611L82.842,131.049z
		 M79.582,86.241l3.261,4.136l3.223-4.097C84.077,87.012,81.694,87.046,79.582,86.241z M82.844,72.123
		c-2.952,0-5.354,2.408-5.354,5.367c0,1.455,0.583,2.814,1.643,3.83c1.016,0.973,2.368,1.531,3.711,1.531
		c2.589,0,5.362-2.154,5.362-5.361C88.206,74.531,85.801,72.123,82.844,72.123z M108.318,139.488c-1.271,0-2.45-0.435-3.385-1.183
		c-0.937,0.743-2.11,1.183-3.355,1.183c-3.012,0-5.463-2.482-5.463-5.533v-19.333l0.779-0.601c1.331-1.026,2.094-2.567,2.094-4.23
		V92.955c0-1.132-0.37-2.231-1.068-3.179l-2.353-3.188h4.749c-2.079-1.474-3.464-3.887-3.464-6.553c0-4.365,3.708-8.053,8.097-8.053
		c4.369,0,7.924,3.613,7.924,8.053c0,2.699-1.315,5.092-3.329,6.553h1.236c3.567,0,6.47,2.944,6.47,6.563v13.232
		c0,0.848-0.158,1.662-0.449,2.411c0.78-0.722,1.222-1.72,1.222-2.788V92.656c0-0.665-0.316-1.428-0.941-2.269l-2.372-3.193h3.695
		c-1.25-1.28-1.938-2.978-1.937-4.781c0-3.748,3.003-6.797,6.694-6.797c3.692,0,6.696,3.049,6.696,6.798
		c0,1.863-0.743,3.554-1.944,4.782c2.997,0.069,5.414,2.562,5.414,5.617v10.494c0,2.045-1.075,3.863-2.749,4.846v17.013
		c0,2.649-2.13,4.805-4.747,4.805c-0.986,0-1.908-0.301-2.672-0.828c-0.765,0.526-1.688,0.828-2.675,0.828
		c-2.616,0-4.744-2.155-4.744-4.805v-14.567c-0.537,0.648-1.199,1.191-1.958,1.593v21.765
		C113.782,137.006,111.331,139.488,108.318,139.488z M106.897,134.3c0.156,0.699,0.74,1.188,1.421,1.188
		c0.808,0,1.464-0.688,1.464-1.533v-24.712l1.536-0.366c1.119-0.267,1.931-1.315,1.931-2.493V93.152c0-1.413-1.108-2.563-2.47-2.563
		h-8.1c0.204,0.768,0.309,1.561,0.309,2.366v16.836c0,2.569-1.036,4.971-2.873,6.729v17.435c0,0.846,0.656,1.533,1.463,1.533
		c0.67,0,1.264-0.496,1.413-1.181L106.897,134.3z M121.209,125.35l3.905,0.002c0.067,0.307,0.336,0.618,0.717,0.618
		c0.412,0,0.747-0.361,0.747-0.805v-19.924l1.539-0.364c0.701-0.166,1.21-0.826,1.21-1.57V92.813c0-0.892-0.691-1.618-1.542-1.618
		h-5.936c0.114,0.489,0.172,0.976,0.172,1.461v13.351c0,2.094-0.82,4.052-2.281,5.51v13.648c0,0.443,0.334,0.805,0.744,0.805
		C120.83,125.97,121.128,125.715,121.209,125.35z M123.161,79.616c-1.485,0-2.694,1.255-2.694,2.798
		c0,0.755,0.285,1.462,0.803,1.991c0.507,0.518,1.179,0.803,1.892,0.803c1.486,0,2.696-1.253,2.696-2.794
		C125.857,80.871,124.647,79.616,123.161,79.616z M104.948,75.983c-2.221,0-4.098,1.856-4.098,4.053
		c0,2.194,1.877,4.047,4.098,4.047c2.164,0,3.924-1.815,3.924-4.047C108.872,77.801,107.112,75.983,104.948,75.983z"/>
</g>
<g>
	<path fill="#30A7DF" d="M98.94,195.324c-52.989,0-96.099-43.11-96.099-96.099c0-52.989,43.11-96.099,96.099-96.099
		c52.989,0,96.099,43.11,96.099,96.099C195.039,152.214,151.929,195.324,98.94,195.324z M98.94,7.126
		c-50.784,0-92.099,41.315-92.099,92.099s41.315,92.099,92.099,92.099s92.099-41.315,92.099-92.099S149.724,7.126,98.94,7.126z"/>
</g>
</svg>
