<?xml version="1.0" encoding="utf-8"?>
<!-- Generator: Adobe Illustrator 16.0.5, SVG Export Plug-In . SVG Version: 6.00 Build 0)  -->
<!DOCTYPE svg PUBLIC "-//W3C//DTD SVG 1.1//EN" "http://www.w3.org/Graphics/SVG/1.1/DTD/svg11.dtd">
<svg version="1.1" id="Layer_1" xmlns="http://www.w3.org/2000/svg" xmlns:xlink="http://www.w3.org/1999/xlink" x="0px" y="0px"
	 width="198.422px" height="198.422px" viewBox="0 0 198.422 198.422" enable-background="new 0 0 198.422 198.422"
	 xml:space="preserve">
<g>
	<path fill="#30A7DF" d="M98.94,195.324c-52.989,0-96.099-43.11-96.099-96.099c0-52.989,43.11-96.099,96.099-96.099
		c52.989,0,96.099,43.11,96.099,96.099C195.039,152.214,151.929,195.324,98.94,195.324z M98.94,7.126
		c-50.784,0-92.099,41.315-92.099,92.099s41.315,92.099,92.099,92.099s92.099-41.315,92.099-92.099S149.724,7.126,98.94,7.126z"/>
</g>
<g>
	<path fill="#30A7DF" d="M95.273,154.521c-4.747,0-8.626-3.926-8.648-8.752L86.48,112.45l-0.145,0.001
		c-4.785,0-8.666-3.925-8.688-8.751l-0.109-25.054c-0.01-2.332,0.877-4.536,2.497-6.205c1.632-1.681,3.803-2.612,6.113-2.622
		l9.335-0.042l5.678,7.301l5.622-7.348l9.326-0.042c4.783,0,8.663,3.925,8.688,8.75l0.109,25.054
		c0.021,4.845-3.842,8.805-8.61,8.829l-0.141,0.001l0.145,33.32c0.011,2.337-0.874,4.541-2.489,6.207
		c-1.629,1.679-3.803,2.609-6.121,2.618c-2.408,0-4.611-0.973-6.2-2.625c-1.58,1.678-3.78,2.671-6.178,2.68H95.273z M90.462,108.433
		l0.163,37.319c0.012,2.63,2.097,4.77,4.648,4.77v2l0.022-2c1.922-0.007,3.61-1.216,4.303-3.079l1.849-4.976l1.894,4.958
		c0.706,1.849,2.398,3.042,4.311,3.042c1.257-0.005,2.417-0.503,3.29-1.403c0.883-0.91,1.366-2.119,1.36-3.404l-0.162-37.322
		l4.141-0.017c2.562-0.013,4.639-2.172,4.628-4.812l-0.109-25.053c-0.014-2.629-2.1-4.769-4.649-4.769l-7.383,0.034l-7.579,9.906
		l-7.652-9.841l-7.369,0.033c-1.226,0.005-2.383,0.505-3.259,1.408c-0.888,0.915-1.373,2.123-1.368,3.402l0.109,25.054
		c0.012,2.63,2.098,4.769,4.65,4.769L90.462,108.433z M63.555,143.677c-3.927,0-7.134-3.245-7.149-7.233l-0.131-29.691
		c-3.109-1.367-5.179-4.466-5.194-8.009l-0.087-19.692c-0.009-2.333,0.878-4.536,2.498-6.205c1.632-1.681,3.804-2.611,6.115-2.62
		l6.298-0.028c-4.825-1.086-8.46-5.466-8.484-10.689c-0.025-6.07,4.804-11.03,10.765-11.057c5.981,0,10.833,4.917,10.861,10.962
		c0.012,2.929-1.094,5.689-3.117,7.773c-1.46,1.504-3.272,2.527-5.25,2.989l9.633-0.043l-2.345,3.2
		c-1.155,1.577-1.762,3.416-1.754,5.318l0.109,25.055c0.011,2.779,1.296,5.35,3.525,7.055l0.781,0.597l0.112,24.981
		c0.016,4.004-3.178,7.276-7.12,7.295c-1.952,0-3.729-0.77-5.028-2.057c-1.292,1.305-3.065,2.09-5.007,2.1H63.555z M73.014,74.166
		l-13.39,0.06c-1.228,0.005-2.386,0.504-3.262,1.407c-0.887,0.914-1.373,2.122-1.368,3.401l0.087,19.691
		c0.01,2.204,1.541,4.156,3.64,4.643l1.542,0.357l0.144,32.701c0.007,1.793,1.419,3.25,3.149,3.25v2l0.014-2
		c1.474-0.007,2.731-1.056,3.057-2.55l1.934-8.882l1.972,8.874c0.324,1.457,1.612,2.515,3.062,2.515
		c1.747-0.009,3.155-1.479,3.148-3.278l-0.103-23.062c-2.74-2.445-4.301-5.88-4.315-9.57l-0.109-25.055
		C72.208,77.118,72.48,75.601,73.014,74.166z M68.231,52.451c-3.784,0.017-6.826,3.175-6.81,7.04
		c0.018,3.84,3.075,6.965,6.816,6.965v2l0.029-2c1.812-0.007,3.515-0.737,4.793-2.055c1.29-1.328,1.995-3.093,1.987-4.97
		C75.029,55.583,71.972,52.451,68.231,52.451z M128.938,143.393c-3.927,0-7.138-3.244-7.156-7.23l-0.108-24.776l0.841-0.602
		c2.34-1.676,3.728-4.402,3.713-7.296l-0.108-25.056c-0.008-1.897-0.631-3.731-1.8-5.304l-2.362-3.177l9.325-0.04
		c-4.821-1.088-8.456-5.467-8.481-10.688c-0.025-6.071,4.807-11.031,10.771-11.058c5.979,0,10.827,4.917,10.855,10.962
		c0.014,2.928-1.093,5.689-3.115,7.773c-1.461,1.505-3.272,2.528-5.251,2.991l6.287-0.027c4.787,0,8.666,3.926,8.687,8.752
		l0.086,19.69c0.015,3.479-2.065,6.64-5.125,8.044l0.131,29.701c0.019,4.003-3.174,7.275-7.117,7.294
		c-1.95,0-3.729-0.77-5.028-2.057c-1.291,1.306-3.065,2.092-5.011,2.102H128.938z M125.682,113.38l0.1,22.764
		c0.009,1.791,1.425,3.249,3.156,3.249v2l0.014-2c1.476-0.007,2.731-1.055,3.054-2.549l1.918-8.895l1.988,8.879
		c0.333,1.483,1.595,2.52,3.07,2.52c1.745-0.009,3.152-1.478,3.144-3.275l-0.144-32.704l1.538-0.371
		c2.095-0.505,3.609-2.47,3.6-4.672l-0.086-19.69c-0.011-2.63-2.096-4.77-4.647-4.77l-13.106,0.056
		c0.547,1.432,0.832,2.946,0.839,4.494l0.108,25.055C130.246,107.299,128.564,110.93,125.682,113.38z M133.617,52.166
		c-3.788,0.017-6.833,3.175-6.817,7.04c0.019,3.841,3.078,6.966,6.819,6.966v2l0.029-2c1.811-0.008,3.513-0.738,4.791-2.056
		c1.29-1.329,1.995-3.094,1.986-4.969C140.407,55.297,137.354,52.166,133.617,52.166z M101.077,69.148
		c-7.068,0-12.845-5.85-12.879-13.041c-0.016-3.493,1.303-6.784,3.713-9.268c2.421-2.495,5.655-3.878,9.104-3.893
		c7.118,0,12.888,5.853,12.919,13.046c0.016,3.553-1.361,6.884-3.877,9.38c-2.403,2.385-5.657,3.761-8.928,3.775H101.077z
		 M101.071,46.947c-2.404,0.01-4.624,0.961-6.29,2.678c-1.677,1.728-2.594,4.023-2.583,6.464c0.025,5.418,4.612,9.059,8.879,9.059v2
		l0.034-2c2.23-0.009,4.464-0.962,6.128-2.614c1.748-1.734,2.705-4.051,2.694-6.523C109.912,51.013,105.937,46.947,101.071,46.947z"
		/>
</g>
</svg>
