<?xml version="1.0" encoding="utf-8"?>
<!-- Generator: Adobe Illustrator 16.0.5, SVG Export Plug-In . SVG Version: 6.00 Build 0)  -->
<!DOCTYPE svg PUBLIC "-//W3C//DTD SVG 1.1//EN" "http://www.w3.org/Graphics/SVG/1.1/DTD/svg11.dtd">
<svg version="1.1" id="Layer_1" xmlns="http://www.w3.org/2000/svg" xmlns:xlink="http://www.w3.org/1999/xlink" x="0px" y="0px"
	 width="198.422px" height="198.422px" viewBox="0 0 198.422 198.422" enable-background="new 0 0 198.422 198.422"
	 xml:space="preserve">
<g>
	<path fill="#30A7DF" d="M98.94,195.324c-52.989,0-96.099-43.11-96.099-96.099c0-52.989,43.11-96.099,96.099-96.099
		c52.989,0,96.099,43.11,96.099,96.099C195.039,152.214,151.929,195.324,98.94,195.324z M98.94,7.126
		c-50.784,0-92.099,41.315-92.099,92.099s41.315,92.099,92.099,92.099s92.099-41.315,92.099-92.099S149.724,7.126,98.94,7.126z"/>
</g>
<g>
	<path fill="#30A7DF" d="M104.057,176.445h-5.648c-4.337,0-8.03-3.049-9.003-7.112h-8.503c-3.222,0-5.844-2.613-5.844-5.825
		l0.01-11.15h52.323l0.008,11.15c0,3.212-2.62,5.825-5.84,5.825h-8.504C112.082,173.396,108.392,176.445,104.057,176.445z
		 M79.068,163.696c0.096,0.918,0.881,1.637,1.834,1.637H93.12l0.035,1.964c0.051,2.839,2.408,5.148,5.254,5.148h5.648
		c2.844,0,5.197-2.31,5.248-5.148l0.035-1.964h12.219c0.964,0,1.757-0.739,1.834-1.676l-0.004-0.203v-7.097H79.068V163.696z
		 M127.434,145.924h-4c0-18.951,5.871-27.646,12.669-37.715c0.623-0.922,1.254-1.857,1.891-2.815
		c6.022-9.065,11.214-16.881,11.214-27.289c0-26.586-21.728-48.215-48.434-48.215c-26.7,0-48.421,21.629-48.421,48.215
		c0,11.374,5.562,19.528,12.003,28.969c0.706,1.034,1.389,2.016,2.061,2.981c6.726,9.666,12.534,18.015,12.534,35.868h-4
		c0-16.599-5.215-24.095-11.817-33.584c-0.678-0.975-1.368-1.966-2.062-2.983C54.237,99.34,48.352,90.713,48.352,78.105
		c0-28.792,23.516-52.215,52.421-52.215c28.912,0,52.434,23.423,52.434,52.215c0,11.615-5.501,19.896-11.871,29.486
		c-0.653,0.983-1.29,1.927-1.918,2.856C132.723,120.364,127.434,128.196,127.434,145.924z M113.789,145.924h-4v-21.85h3.871
		c2.576,0,4.673-2.086,4.673-4.649V98.283c0-2.562-2.097-4.646-4.673-4.646h-5.837l-7.034,10.264l-7.061-10.264h-5.83
		c-2.576,0-4.671,2.084-4.671,4.646h-4c0-4.768,3.89-8.646,8.671-8.646h7.934l4.952,7.197l4.933-7.197h7.944
		c4.782,0,8.673,3.879,8.673,8.646v21.142c0,4.727-3.82,8.58-8.544,8.648V145.924z M91.747,145.924h-4v-17.851
		c-4.712-0.081-8.52-3.93-8.52-8.648V98.283h4v21.142c0,2.563,2.095,4.649,4.671,4.649h3.849V145.924z M100.779,89.407
		c-6.997,0-12.908-5.888-12.908-12.858c0-7.097,5.791-12.871,12.908-12.871c7.117,0,12.908,5.774,12.908,12.871
		C113.688,83.519,107.776,89.407,100.779,89.407z M100.779,67.678c-4.912,0-8.908,3.979-8.908,8.871
		c0,5.299,4.606,8.858,8.908,8.858c4.302,0,8.908-3.56,8.908-8.858C109.688,71.657,105.691,67.678,100.779,67.678z"/>
</g>
</svg>
